<svg xmlns="http://www.w3.org/2000/svg" xmlns:xlink="http://www.w3.org/1999/xlink" width="986.875" height="979.437" viewBox="0 0 986.875 979.437">
<defs>
<clipPath id="clip-0">
<path clip-rule="nonzero" d="M 0.0664062 0.046875 L 935.683594 0.046875 L 935.683594 607 L 0.0664062 607 Z M 0.0664062 0.046875 "/>
</clipPath>
<clipPath id="clip-1">
<path clip-rule="nonzero" d="M 537 793 L 688 793 L 688 929.363281 L 537 929.363281 Z M 537 793 "/>
</clipPath>
<clipPath id="clip-2">
<rect x="0" y="0" width="936" height="930"/>
</clipPath>
<g id="source-5" clip-path="url(#clip-2)">
<g clip-path="url(#clip-0)">
<path fill-rule="nonzero" fill="currentColor" fill-opacity="1" d="M 269.121094 159.957031 C 273.320312 160.953125 274.671875 159.355469 274.476562 156.578125 C 273.898438 147.910156 268.449219 141.167969 264.585938 133.761719 C 262.539062 129.828125 261.367188 126.09375 260.210938 121.859375 C 259.03125 117.472656 256.5 113.191406 255.5625 108.808594 C 254.371094 103.242188 254.378906 97.421875 253.8125 91.71875 C 253.316406 86.847656 252.796875 81.964844 252.171875 77.105469 C 251.800781 74.285156 249.222656 71.75 246.257812 72.929688 C 243.261719 74.125 243.945312 80.796875 243.773438 83.285156 C 242.871094 96.175781 242.9375 109.050781 246.28125 121.625 C 246.769531 123.453125 247.820312 125.144531 248.238281 126.984375 C 250.25 135.789062 254.324219 144.371094 260.039062 151.382812 C 261.984375 153.765625 265.949219 159.203125 269.121094 159.957031 M 388.261719 303.53125 C 390.308594 267.539062 360.773438 234.808594 324.316406 253.414062 C 306.976562 262.265625 303.238281 281.5625 302.324219 298.417969 C 299.328125 354.03125 385.160156 357.964844 388.261719 303.53125 M 513.269531 507.765625 L 513.09375 507.40625 L 503.621094 488.457031 L 473.273438 465.003906 L 453.953125 459.488281 L 423.605469 493.976562 L 425.78125 496 L 444.292969 513.285156 L 482.921875 520.179688 Z M 639.363281 299.785156 C 646.605469 257.855469 606.171875 234.542969 570.523438 252.441406 C 557.195312 259.140625 548.695312 270.710938 545.617188 283.980469 C 543.660156 292.402344 543.90625 301.507812 546.484375 310.507812 C 552.753906 332.386719 578.230469 341.234375 598.996094 338.203125 C 619.765625 335.175781 635.824219 320.238281 639.363281 299.785156 M 667.660156 528.855469 C 692.859375 514.082031 692.664062 475.578125 685.59375 451.179688 C 678.953125 428.296875 671.003906 408.417969 648.074219 397.335938 C 638.84375 392.859375 629.03125 391.457031 619.21875 388.890625 C 605.488281 385.304688 592.542969 378.753906 578.359375 376.917969 C 561.246094 374.707031 542.988281 378.441406 527.128906 384.773438 C 527.011719 384.816406 526.886719 384.863281 526.78125 384.910156 C 517.90625 391.121094 513.917969 399.347656 505.390625 407.515625 C 501.410156 411.3125 497.210938 415.234375 492.304688 417.789062 C 486.53125 420.808594 483.742188 424.617188 484.296875 431.917969 C 485.097656 442.375 491.945312 450.832031 498.019531 459.21875 C 507.507812 472.316406 523.65625 480.53125 540.027344 479.292969 C 554.628906 478.183594 573.914062 460.679688 581.910156 480.820312 C 593.1875 509.246094 544.320312 513.328125 522.152344 512.171875 C 515.988281 531.738281 482.851562 537.011719 466.191406 537.175781 C 447.207031 537.359375 430.535156 533.125 419.777344 517.101562 C 417.578125 513.816406 415.425781 511.90625 413.207031 510.691406 C 398.429688 513.003906 383.21875 510.390625 370.375 500.871094 C 358.480469 492.042969 362.011719 475.554688 378.601562 476.066406 C 384.003906 476.226562 389.222656 478.042969 394.578125 478.773438 C 405.925781 480.300781 417.9375 479.894531 427.34375 474.0625 C 433.542969 470.210938 439.675781 462.03125 443.460938 455.554688 C 446.976562 449.546875 446.234375 442.375 446.941406 435.734375 C 447.902344 426.800781 446.777344 420.09375 439.46875 415.070312 C 432.917969 410.570312 428.140625 404.058594 422.863281 398.226562 C 419.824219 394.871094 415.808594 392.671875 411.492188 391.054688 C 406.957031 390.09375 402.191406 389.398438 397.089844 388.125 C 389.949219 386.332031 381.792969 384.089844 374.125 382.839844 C 323.507812 374.554688 277.195312 399.914062 252.933594 443.441406 C 245.945312 455.96875 244.085938 470.394531 244.476562 484.558594 C 246.179688 546.015625 316.554688 562.789062 367.875 570.773438 C 403.011719 576.234375 436.957031 574.707031 472.347656 578.140625 C 512.992188 582.085938 560.195312 570.449219 599.4375 561.296875 C 614.003906 557.894531 627.898438 552.363281 641.097656 545.378906 C 650.332031 540.484375 658.660156 534.132812 667.660156 528.855469 M 735.386719 92.242188 C 735.652344 91.046875 735.921875 89.742188 735.386719 88.644531 C 734.832031 87.496094 734.023438 87.183594 733.121094 87.347656 C 730.933594 87.75 728.238281 90.96875 727.519531 92.171875 C 722.351562 100.929688 717.871094 110.9375 712.898438 119.984375 C 708.582031 127.839844 705.839844 136.480469 700.613281 143.839844 C 696.410156 149.761719 691.769531 153.664062 691.714844 161.597656 C 691.621094 174.09375 706.972656 158.058594 709.21875 154.808594 C 712.101562 150.609375 715.0625 146.363281 717.144531 141.757812 C 724.386719 125.664062 731.445312 109.480469 735.386719 92.242188 M 904.519531 335.554688 C 915.660156 340 941.925781 337.464844 934.324219 356.347656 C 929.046875 369.476562 914.644531 376.476562 906.011719 386.402344 C 899.558594 393.832031 885.316406 403.234375 875.886719 406.453125 C 869.847656 408.511719 863.878906 410.824219 857.988281 413.3125 C 855.953125 414.167969 854.207031 415.523438 853.117188 417.375 C 853.164062 417.304688 872.890625 420.371094 874.234375 420.484375 C 878.003906 420.800781 881.855469 420.171875 885.6875 420.035156 C 900.632812 419.546875 884.886719 436.660156 880.976562 440.746094 C 869.328125 452.890625 854.136719 460.308594 840.460938 469.828125 C 809.8125 491.152344 777.175781 513.46875 745.707031 533.183594 C 724.410156 546.523438 698.910156 553.949219 675.019531 561.042969 C 669.652344 562.628906 664.605469 565.148438 659.4375 567.289062 C 648.410156 571.859375 636.25 573.015625 625.328125 577.332031 C 595.226562 589.214844 572.121094 599.824219 538.6875 603.109375 C 442.890625 612.527344 332.648438 606.175781 244.085938 564.929688 C 214.085938 550.953125 189.128906 528.636719 160.460938 512.394531 C 134.789062 497.851562 101.261719 489.023438 80.332031 467.644531 C 73.078125 460.238281 40.046875 442.0625 48.054688 428.457031 C 51.199219 423.089844 58.429688 424.164062 64.125 423.992188 C 77.601562 423.574219 92.664062 426.199219 104.675781 418.425781 C 111.128906 414.238281 112.886719 411.160156 111.859375 408.835938 C 110.386719 405.480469 103.148438 403.6875 95.984375 402.34375 C 80.863281 399.511719 74.050781 396.0625 61.113281 387.269531 C 48.714844 378.835938 39.191406 373.351562 26.8125 364.871094 C 17.847656 358.71875 10.011719 346.996094 4.667969 337.777344 C -1.164062 327.746094 -5.003906 306.332031 16.019531 315.054688 C 33.417969 322.273438 38.972656 321.394531 57.226562 318.675781 C 67.5 317.148438 100.023438 315.496094 105.667969 305.382812 C 109.589844 298.371094 101.664062 294.84375 96.296875 290.550781 C 86.660156 282.835938 75.414062 276.148438 66.5625 267.550781 C 60.894531 262.042969 43.75 251.515625 46.109375 242.480469 C 49.289062 230.355469 78.527344 234.671875 87.851562 234.324219 C 91.890625 234.171875 95.925781 234.324219 99.953125 234.171875 C 125.082031 233.234375 165.320312 228.191406 182.28125 207.089844 C 185.601562 202.960938 189.117188 198.875 193.085938 195.371094 C 207.109375 182.945312 195.03125 156.714844 200.757812 140.253906 C 202.339844 135.695312 202.816406 131.644531 202.421875 126.738281 C 201.507812 115.242188 205.628906 103.4375 206.921875 92.03125 C 208.449219 78.519531 209.097656 64.914062 211.285156 51.46875 C 214.351562 32.648438 215.726562 10.121094 236.113281 1.085938 C 239.457031 -0.40625 242.648438 -0.28125 245.96875 1.386719 C 263.554688 10.203125 273.515625 26.398438 288.511719 38.316406 C 292.492188 41.472656 295.9375 45.316406 299.734375 48.75 C 307.207031 55.507812 315.757812 60.96875 323.136719 67.816406 C 329.617188 73.832031 333.898438 81.203125 341.796875 85.554688 C 346.980469 88.421875 351.390625 92.667969 356.398438 95.898438 C 363.746094 100.628906 371.371094 104.933594 378.796875 109.546875 C 391.652344 117.542969 409.640625 112.800781 423.339844 110.554688 C 445.148438 106.980469 468.066406 106.46875 490.070312 107.894531 C 492.835938 108.078125 495.695312 107.960938 498.367188 108.589844 C 508.050781 110.878906 518.371094 108.796875 528.378906 110.902344 C 544.285156 114.246094 559.671875 119.023438 575.765625 121.605469 C 582.660156 122.703125 594.300781 107.941406 598.996094 103.695312 C 610 93.769531 623.304688 86.769531 634.03125 76.585938 C 642.832031 68.234375 653.824219 62.320312 661.390625 52.617188 C 672.3125 38.628906 714.886719 -1.285156 735.398438 7.332031 C 744.445312 11.148438 758.886719 26.734375 760.515625 36.984375 C 763.097656 53.195312 772.769531 68.1875 774.375 85.355469 C 775.777344 100.351562 775.429688 115.4375 777.605469 130.304688 C 779.363281 142.242188 782.867188 154.089844 782.890625 166.226562 C 782.902344 176.90625 781.769531 189.980469 778.667969 200.230469 C 776.644531 206.878906 773.683594 209.402344 775.464844 216.773438 C 778.207031 228.226562 789.949219 241.230469 799.574219 247.605469 C 815.75 258.332031 829.101562 266.011719 848.351562 270.0625 C 853.382812 271.125 894.871094 265.78125 896.617188 272.121094 C 899.625 283.042969 883.765625 296.4375 877.296875 303.867188 C 873.351562 308.402344 856.832031 319.636719 859.03125 326.683594 C 861.007812 333.046875 876.328125 332.398438 881.277344 332.210938 C 889.238281 331.921875 897.023438 332.570312 904.519531 335.554688 "/>
</g>
<path fill-rule="nonzero" fill="currentColor" fill-opacity="1" d="M 806.480469 809.101562 C 806.480469 821.941406 796.046875 831.269531 781.664062 831.269531 L 773.070312 831.269531 L 773.71875 828.664062 C 774.96875 823.679688 775.140625 821.273438 775.140625 819.421875 C 775.140625 810.117188 769.066406 804.992188 758.054688 804.992188 C 747.777344 804.992188 737.414062 809.828125 737.414062 820.613281 C 737.414062 830.46875 746.851562 836.714844 757.773438 843.933594 C 771.335938 852.890625 786.710938 863.046875 786.710938 883.179688 C 786.710938 914.636719 758.238281 928.957031 731.777344 928.957031 C 715.894531 928.957031 702.378906 924.238281 696.527344 916.625 C 693.300781 912.449219 692.339844 907.429688 693.75 902.117188 L 696.851562 890.445312 L 699.292969 892.039062 C 706.394531 896.691406 716.402344 899.375 726.769531 899.375 C 738.027344 899.375 750.058594 895.894531 750.058594 886.140625 C 750.058594 879.605469 742.019531 874.144531 732.714844 867.816406 C 718.867188 858.386719 701.640625 846.65625 701.640625 824.730469 C 701.640625 795.308594 724.363281 776.300781 759.523438 776.300781 C 787.183594 776.300781 806.480469 789.78125 806.480469 809.101562 "/>
<path fill-rule="nonzero" fill="#FFFFFF" fill-opacity="1" d="M 735.386719 88.640625 C 735.921875 89.742188 735.652344 91.050781 735.386719 92.242188 C 731.445312 109.476562 724.386719 125.664062 717.144531 141.757812 C 715.0625 146.363281 712.101562 150.609375 709.21875 154.808594 C 706.972656 158.058594 691.621094 174.09375 691.714844 161.597656 C 691.769531 153.660156 696.410156 149.761719 700.613281 143.839844 C 705.839844 136.480469 708.582031 127.839844 712.898438 119.984375 C 717.871094 110.9375 722.351562 100.929688 727.519531 92.171875 C 728.238281 90.96875 730.933594 87.75 733.121094 87.347656 C 734.023438 87.183594 734.832031 87.496094 735.386719 88.640625 "/>
<g clip-path="url(#clip-1)">
<path fill-rule="nonzero" fill="currentColor" fill-opacity="1" d="M 682.792969 866.253906 C 686.046875 869.007812 687.605469 873.449219 687.605469 879.847656 C 687.605469 907.613281 665.730469 929.363281 637.800781 929.363281 C 624.3125 929.363281 613.226562 923.742188 606.921875 913.804688 C 598.09375 924.007812 586.828125 929.363281 574.132812 929.363281 C 552.753906 929.363281 537.832031 915.15625 537.832031 894.78125 C 537.832031 884.382812 544.769531 877.730469 555.960938 877.429688 L 558.921875 877.347656 L 559.039062 880.308594 C 559.511719 892.445312 564.484375 898.105469 574.703125 898.105469 C 589.71875 898.105469 596.878906 867.351562 601.160156 848.96875 L 602.6875 842.5 C 604.355469 834.820312 605.9375 826.976562 607.5 818.644531 C 608.089844 815.535156 607.652344 813.371094 607.085938 811.507812 L 605.671875 808.117188 L 606.714844 806.683594 C 607.90625 805.167969 614.40625 797.554688 626.808594 795.136719 C 637.859375 792.972656 643.691406 793.203125 646.894531 795.957031 C 648.503906 797.34375 649.3125 799.300781 649.230469 801.636719 L 649.023438 802.761719 C 648.410156 805.570312 647.773438 808.40625 647.136719 811.183594 C 646.722656 812.882812 646.363281 814.410156 646.027344 816.03125 C 642.855469 829.625 639.90625 841.207031 637.535156 850.507812 C 632.816406 869.019531 629.691406 881.246094 629.691406 889.277344 C 629.691406 895.628906 635.40625 897.558594 638.808594 898.136719 C 653.929688 898.105469 664.699219 885.410156 665.265625 866.554688 L 665.289062 864.078125 L 667.777344 863.683594 C 674.578125 862.574219 679.449219 863.417969 682.792969 866.253906 "/>
</g>
<path fill-rule="nonzero" fill="#FFFFFF" fill-opacity="1" d="M 685.59375 451.179688 C 692.664062 475.578125 692.859375 514.082031 667.660156 528.855469 C 658.660156 534.132812 650.332031 540.484375 641.097656 545.378906 C 627.898438 552.367188 614.003906 557.894531 599.4375 561.296875 C 560.195312 570.449219 512.992188 582.085938 472.347656 578.140625 C 436.957031 574.707031 403.011719 576.234375 367.875 570.773438 C 316.554688 562.789062 246.179688 546.011719 244.476562 484.558594 C 244.085938 470.394531 245.945312 455.96875 252.933594 443.441406 C 277.195312 399.914062 323.507812 374.554688 374.125 382.839844 C 381.792969 384.089844 389.949219 386.332031 397.089844 388.125 C 402.191406 389.398438 406.957031 390.09375 411.492188 391.054688 C 415.808594 392.671875 419.824219 394.871094 422.867188 398.226562 C 428.140625 404.058594 432.917969 410.570312 439.46875 415.070312 C 446.777344 420.09375 447.902344 426.800781 446.941406 435.734375 C 446.234375 442.375 446.976562 449.546875 443.460938 455.554688 C 439.675781 462.03125 433.542969 470.210938 427.34375 474.0625 C 417.9375 479.894531 405.925781 480.300781 394.578125 478.773438 C 389.222656 478.042969 384.003906 476.226562 378.601562 476.066406 C 362.011719 475.554688 358.480469 492.042969 370.375 500.871094 C 383.21875 510.390625 398.429688 513.007812 413.207031 510.691406 C 415.425781 511.90625 417.578125 513.816406 419.777344 517.101562 C 430.535156 533.125 447.207031 537.359375 466.191406 537.175781 C 482.851562 537.011719 515.988281 531.738281 522.152344 512.171875 C 544.320312 513.328125 593.1875 509.246094 581.910156 480.820312 C 573.914062 460.679688 554.628906 478.183594 540.027344 479.292969 C 523.65625 480.53125 507.507812 472.316406 498.019531 459.21875 C 491.945312 450.832031 485.097656 442.375 484.296875 431.917969 C 483.742188 424.617188 486.53125 420.808594 492.304688 417.789062 C 497.210938 415.234375 501.410156 411.3125 505.390625 407.515625 C 513.917969 399.347656 517.90625 391.121094 526.78125 384.910156 C 526.886719 384.863281 527.011719 384.816406 527.128906 384.773438 C 542.988281 378.441406 561.246094 374.707031 578.359375 376.917969 C 592.542969 378.753906 605.488281 385.304688 619.222656 388.890625 C 629.03125 391.457031 638.839844 392.859375 648.074219 397.335938 C 671.003906 408.417969 678.953125 428.296875 685.59375 451.179688 "/>
<path fill-rule="nonzero" fill="currentColor" fill-opacity="1" d="M 660.5 743.953125 C 662.882812 748.71875 661.542969 755.1875 656.71875 762.164062 C 652.667969 768.003906 646.757812 773.351562 641.261719 776.09375 C 638.644531 777.398438 636.238281 778.070312 634.042969 778.070312 C 631.632812 778.070312 629.460938 777.285156 627.480469 775.746094 C 624.265625 773.234375 622.042969 769.105469 619.671875 764.351562 C 616.546875 758.148438 614.128906 752.609375 615.785156 747.597656 C 616.8125 744.507812 619.253906 742.03125 623.246094 740.03125 C 628.730469 737.277344 636.527344 735.75 643.65625 736.039062 C 652.136719 736.375 658.117188 739.1875 660.5 743.953125 "/>
<path fill-rule="nonzero" fill="#FFFFFF" fill-opacity="1" d="M 613.019531 302.964844 C 621.164062 281.78125 605.394531 256.523438 580.796875 269.308594 C 567.25 276.34375 569.207031 298.476562 575.394531 309.257812 C 581.886719 320.585938 597.667969 321.300781 606.898438 312.335938 C 609.664062 309.640625 611.675781 306.4375 613.019531 302.964844 M 570.523438 252.441406 C 606.171875 234.542969 646.605469 257.855469 639.363281 299.785156 C 635.820312 320.238281 619.765625 335.175781 598.996094 338.203125 C 578.230469 341.234375 552.753906 332.386719 546.484375 310.507812 C 543.902344 301.507812 543.660156 292.402344 545.617188 283.980469 C 548.691406 270.710938 557.199219 259.140625 570.523438 252.441406 "/>
<path fill-rule="nonzero" fill="currentColor" fill-opacity="1" d="M 580.796875 269.308594 C 605.394531 256.523438 621.164062 281.78125 613.019531 302.964844 C 611.675781 306.433594 609.664062 309.640625 606.898438 312.335938 C 597.667969 321.300781 581.886719 320.585938 575.394531 309.257812 C 569.207031 298.476562 567.25 276.34375 580.796875 269.308594 "/>
<path fill-rule="nonzero" fill="currentColor" fill-opacity="1" d="M 560.714844 696.425781 L 559.789062 699.179688 C 531.941406 783.742188 512.527344 867.769531 512.527344 890.304688 C 512.527344 897.304688 516.148438 900.707031 523.597656 900.707031 L 528.792969 900.707031 L 526.976562 909.800781 C 523.84375 926.320312 503.699219 927.605469 497.605469 927.605469 C 481.878906 927.605469 472.484375 917.355469 472.484375 900.175781 C 472.484375 876.792969 491.828125 784.503906 515.6875 714.960938 C 521.484375 697.167969 532.796875 696.425781 557.800781 696.425781 Z M 560.714844 696.425781 "/>
<path fill-rule="nonzero" fill="currentColor" fill-opacity="1" d="M 513.09375 507.40625 L 513.269531 507.765625 L 482.921875 520.179688 L 444.292969 513.285156 L 425.78125 496 C 436.03125 493.429688 446.0625 491.09375 455.292969 488.804688 C 450.757812 493.40625 445.585938 497.410156 440.011719 500.777344 C 446.433594 507.847656 459.03125 512.53125 465.40625 512.40625 C 475.414062 512.21875 486.046875 507.324219 494.304688 501.644531 C 493.589844 501.113281 492.941406 500.464844 492.234375 499.886719 C 492.421875 499.933594 492.59375 499.957031 492.765625 499.992188 C 491.414062 498.832031 490.09375 497.640625 488.796875 496.402344 L 489.679688 495.46875 C 490.558594 496.058594 491.460938 496.636719 492.375 497.203125 C 493.101562 497.652344 493.855469 498.105469 494.609375 498.53125 C 500.355469 501.910156 506.582031 504.804688 513.09375 507.40625 "/>
<path fill-rule="nonzero" fill="currentColor" fill-opacity="1" d="M 503.621094 488.457031 L 513.09375 507.40625 C 506.582031 504.804688 500.359375 501.910156 494.605469 498.53125 C 493.855469 498.105469 493.101562 497.652344 492.375 497.203125 C 491.460938 496.636719 490.558594 496.054688 489.679688 495.46875 L 488.800781 496.40625 C 482.898438 490.792969 477.601562 484.523438 472.855469 479.15625 C 468.03125 473.695312 458.8125 485.160156 455.953125 488.132812 C 455.734375 488.363281 455.515625 488.582031 455.292969 488.804688 C 446.0625 491.09375 436.03125 493.429688 425.78125 496 L 423.605469 493.976562 L 453.953125 459.488281 L 473.273438 465.003906 Z M 503.621094 488.457031 "/>
<path fill-rule="nonzero" fill="#FF4E00" fill-opacity="1" d="M 455.292969 488.804688 C 455.515625 488.582031 455.734375 488.363281 455.953125 488.132812 C 458.8125 485.160156 468.03125 473.695312 472.855469 479.15625 C 477.601562 484.523438 482.898438 490.792969 488.800781 496.402344 C 490.09375 497.640625 491.414062 498.832031 492.769531 499.992188 C 492.59375 499.957031 492.421875 499.933594 492.234375 499.886719 C 492.941406 500.464844 493.589844 501.113281 494.304688 501.644531 C 486.046875 507.324219 475.414062 512.21875 465.40625 512.40625 C 459.03125 512.53125 446.433594 507.847656 440.011719 500.777344 C 445.589844 497.410156 450.757812 493.40625 455.292969 488.804688 "/>
<path fill-rule="nonzero" fill="currentColor" fill-opacity="1" d="M 431.667969 807.503906 C 432.363281 795.867188 424.613281 788.425781 410.925781 787.582031 C 410.230469 787.535156 409.550781 787.523438 408.855469 787.523438 C 386.582031 787.523438 372.054688 809.863281 367.066406 833.328125 C 368.476562 833.351562 369.878906 833.351562 371.265625 833.351562 C 406.84375 833.351562 430.398438 828.445312 431.667969 807.503906 M 416.710938 757.363281 C 450.886719 759.457031 471.804688 780.164062 469.988281 810.152344 C 467.824219 845.71875 434.710938 862.238281 365.769531 861.195312 C 368.464844 881.398438 380.925781 892.296875 402.851562 893.625 C 414.570312 894.320312 424.914062 892.585938 436.214844 887.945312 L 437.441406 887.4375 L 440.914062 890.582031 L 438.84375 899.25 C 433.949219 916.683594 418.421875 925.742188 393.769531 925.742188 C 391.605469 925.742188 389.359375 925.671875 387.058594 925.546875 C 366.730469 924.320312 350.324219 916.476562 339.613281 902.882812 C 329.363281 889.855469 324.605469 871.992188 325.867188 851.191406 C 328.75 803.535156 358.214844 753.832031 416.710938 757.363281 "/>
<path fill-rule="nonzero" fill="#FFFFFF" fill-opacity="1" d="M 364.777344 305.902344 C 366.324219 298.417969 366.765625 286.398438 362.773438 278.03125 C 357.578125 267.132812 346.324219 261.441406 334.984375 270.003906 C 323.554688 278.621094 317.0625 298.011719 326.203125 310.960938 C 334.265625 322.378906 352.765625 324.691406 361.109375 314.058594 C 362.808594 311.882812 364.09375 309.175781 364.777344 305.902344 M 324.316406 253.414062 C 360.773438 234.808594 390.308594 267.539062 388.261719 303.53125 C 385.160156 357.964844 299.328125 354.03125 302.324219 298.417969 C 303.238281 281.5625 306.976562 262.261719 324.316406 253.414062 "/>
<path fill-rule="nonzero" fill="currentColor" fill-opacity="1" d="M 362.773438 278.03125 C 366.765625 286.398438 366.328125 298.417969 364.777344 305.902344 C 364.09375 309.175781 362.808594 311.882812 361.109375 314.058594 C 352.765625 324.691406 334.269531 322.378906 326.203125 310.957031 C 317.0625 298.011719 323.554688 278.621094 334.984375 270.003906 C 346.324219 261.441406 357.578125 267.132812 362.773438 278.03125 "/>
<path fill-rule="nonzero" fill="currentColor" fill-opacity="1" d="M 334.753906 695.375 C 337.761719 699.527344 338.488281 704.433594 336.917969 709.929688 L 333.722656 720.339844 L 331.558594 719.390625 C 325.972656 716.917969 320.429688 715.679688 313.605469 715.378906 L 310.285156 715.214844 C 289.945312 714.195312 252.089844 712.242188 241.957031 742.054688 C 240.589844 746.117188 236.597656 763.332031 236.5625 763.503906 C 234.402344 774.035156 232.179688 785.878906 229.957031 798.722656 C 246.050781 804.011719 286.289062 798.039062 294.886719 793.816406 C 309.117188 786.828125 317.605469 786.714844 318.128906 786.714844 L 318.742188 786.714844 L 319.261719 787.039062 C 321.160156 788.265625 322.339844 790.265625 322.664062 792.855469 C 323.714844 801.441406 315.386719 815.117188 310.421875 820.347656 C 296.25 835.339844 242.128906 834.566406 225.988281 825.089844 C 225.886719 825.03125 225.78125 824.960938 225.675781 824.90625 C 224.125 834.886719 222.636719 844.863281 221.222656 854.671875 C 215.066406 896.402344 209.179688 917.4375 192.335938 924.167969 C 188.125 925.894531 183.703125 926.796875 179.539062 926.796875 C 179.097656 926.796875 178.683594 926.785156 178.253906 926.761719 C 170.339844 926.414062 164.683594 922.90625 161.882812 916.648438 L 157.523438 906.003906 L 159.375 905.171875 C 174.945312 898.253906 179.527344 887.320312 186.609375 840.199219 C 188.527344 827.613281 189.859375 816.585938 191.144531 805.941406 C 194.023438 781.910156 196.511719 761.15625 204.761719 737.601562 C 224.808594 680.34375 280.203125 682.867188 306.789062 684.058594 C 319.597656 684.625 330.054688 688.847656 334.753906 695.375 "/>
<path fill-rule="nonzero" fill="#FFFFFF" fill-opacity="1" d="M 274.476562 156.578125 C 274.675781 159.355469 273.320312 160.949219 269.121094 159.957031 C 265.949219 159.203125 261.980469 153.765625 260.039062 151.382812 C 254.324219 144.371094 250.25 135.789062 248.238281 126.984375 C 247.820312 125.144531 246.769531 123.453125 246.28125 121.625 C 242.9375 109.050781 242.871094 96.175781 243.773438 83.285156 C 243.945312 80.796875 243.261719 74.121094 246.257812 72.929688 C 249.222656 71.75 251.800781 74.285156 252.171875 77.105469 C 252.796875 81.964844 253.316406 86.847656 253.8125 91.71875 C 254.378906 97.421875 254.371094 103.242188 255.5625 108.808594 C 256.5 113.191406 259.03125 117.472656 260.210938 121.859375 C 261.367188 126.09375 262.539062 129.828125 264.585938 133.761719 C 268.449219 141.167969 273.898438 147.914062 274.476562 156.578125 "/>
<path fill-rule="nonzero" fill="currentColor" fill-opacity="1" d="M 153.347656 746.476562 C 161.652344 736.351562 164.742188 725.082031 162.011719 714.765625 C 159.328125 704.582031 151.207031 696.359375 139.160156 691.601562 C 132.128906 688.835938 124.328125 687.4375 116.011719 687.4375 C 109.441406 687.4375 102.789062 688.304688 96.214844 690.039062 C 81.28125 693.984375 68.367188 701.851562 59.867188 712.183594 C 51.511719 722.332031 48.421875 733.621094 51.164062 743.988281 C 55.480469 760.335938 73.980469 771.304688 97.222656 771.304688 C 103.769531 771.304688 110.410156 770.4375 116.960938 768.710938 C 131.894531 764.765625 144.832031 756.875 153.347656 746.476562 M 172.367188 712.046875 C 175.871094 725.351562 172.285156 739.671875 162.253906 752.363281 C 152.292969 764.976562 137.171875 774.460938 119.679688 779.078125 C 112.230469 781.035156 104.660156 782.027344 97.222656 782.027344 C 69.039062 782.027344 46.375 767.832031 40.800781 746.71875 C 37.175781 732.9375 40.996094 718.246094 51.582031 705.382812 C 61.53125 693.328125 76.410156 684.1875 93.496094 679.675781 C 110.722656 675.128906 128.34375 675.84375 143.097656 681.652344 C 158.402344 687.679688 168.792969 698.472656 172.367188 712.046875 "/>
<path fill-rule="nonzero" fill="currentColor" fill-opacity="1" d="M 142.425781 717.574219 C 143.664062 719.242188 143.464844 722.238281 141.777344 727.546875 L 141.488281 728.496094 L 140.515625 728.253906 C 138.941406 727.816406 137.277344 728.125 135.585938 729.15625 C 130.023438 732.535156 125.265625 742.703125 123.449219 751.011719 L 123.183594 752.722656 L 112.308594 752.722656 L 112.53125 751.484375 C 114.726562 738.757812 116.53125 730.625 119.203125 721.449219 C 120.535156 716.824219 123.890625 716.613281 130.171875 716.613281 L 131.605469 716.613281 L 131.179688 717.980469 C 130.589844 719.867188 130.070312 721.613281 129.570312 723.347656 C 132.878906 718.453125 135.992188 716.199219 139.335938 716.199219 C 140.710938 716.199219 141.753906 716.660156 142.425781 717.574219 "/>
<path fill-rule="nonzero" fill="currentColor" fill-opacity="1" d="M 102.1875 726.042969 C 102.1875 717.863281 96.691406 716.152344 92.085938 716.152344 L 89.515625 716.152344 C 86.058594 727.085938 83.917969 735.902344 83.917969 739.28125 C 83.917969 740.828125 84.347656 742.589844 87.722656 742.589844 L 89.183594 742.589844 C 96.355469 742.589844 102.1875 735.171875 102.1875 726.042969 M 92.976562 706.019531 C 106.199219 706.019531 113.789062 713.144531 113.789062 725.558594 C 113.789062 741.039062 103.054688 752.722656 88.824219 752.722656 L 85.296875 752.722656 C 74.304688 752.722656 71.992188 746.847656 71.992188 741.917969 C 71.992188 736.78125 74.996094 725.257812 77.949219 716.152344 L 73.679688 716.152344 L 73.945312 714.878906 C 75.03125 709.730469 75.820312 706.019531 79.546875 706.019531 Z M 92.976562 706.019531 "/>
</g>
</defs>
<use xlink:href="#source-5" transform="matrix(1, 0, 0, 1, 25, 25)"/>
</svg>
